<?xml version="1.0" encoding="UTF-8"?>
<!DOCTYPE svg PUBLIC "-//W3C//DTD SVG 1.1//EN" "http://www.w3.org/Graphics/SVG/1.1/DTD/svg11.dtd">
<!-- Creator: CorelDRAW X7 -->
<svg xmlns="http://www.w3.org/2000/svg" xml:space="preserve" width="3.23637in" height="1.51185in" version="1.1" style="shape-rendering:geometricPrecision; text-rendering:geometricPrecision; image-rendering:optimizeQuality; fill-rule:evenodd; clip-rule:evenodd"
viewBox="0 0 3236 1512"
 xmlns:xlink="http://www.w3.org/1999/xlink">
 <defs>
  <style type="text/css">
   <![CDATA[
    .str0 {stroke:#2196F3;stroke-width:41.6654}
    .fil0 {fill:#2196F3}
    .fil2 {fill:#727376}
    .fil1 {fill:white}
    .fil3 {fill:#FEFEFE;fill-rule:nonzero}
    .fil4 {fill:#2196F3;fill-rule:nonzero}
    .fil5 {fill:#FCFDFE;fill-rule:nonzero}
   ]]>
  </style>
 </defs>
 <g id="Layer_x0020_1">
  <metadata id="CorelCorpID_0Corel-Layer"/>
  <path class="fil0 str0" d="M40 1220l1798 0 0 97c0,82 -68,150 -151,150l-1497 0c-82,0 -150,-68 -150,-150l0 -97z"/>
  <path class="fil1 str0" d="M214 34l2808 0c96,0 175,79 175,175l0 836c0,96 -79,175 -175,175l-2983 0 0 -1011c0,-96 79,-175 175,-175z"/>
  <g id="_478142317504">
   <g>
    <path class="fil0" d="M1021 583c-130,18 -241,131 -222,285 17,129 136,239 288,219 127,-18 237,-137 216,-288 -17,-124 -135,-236 -282,-216z"/>
    <path class="fil1" d="M1021 686c-197,40 -138,339 62,298 192,-40 139,-338 -62,-298z"/>
    <path class="fil0" d="M798 724l25 -39c34,-53 56,-63 101,-93 52,-35 97,-75 129,-124 40,-62 39,-133 -1,-193 -23,-36 -94,-102 -142,-117 48,109 87,144 -5,282 -54,82 -103,153 -107,284z"/>
    <path class="fil2" d="M1089 818c8,42 -16,62 -57,45 -18,22 -26,46 -21,82 97,26 167,-27 163,-125 -25,-6 -58,-14 -85,-2z"/>
   </g>
   <g>
    <path class="fil0" d="M453 583c-133,15 -244,129 -228,280 14,132 132,242 283,225 129,-14 240,-133 222,-282 -15,-128 -132,-239 -277,-223z"/>
    <path class="fil1" d="M451 686c-200,38 -143,335 54,300 74,-13 138,-85 123,-177 -12,-74 -86,-140 -177,-123z"/>
    <path class="fil0" d="M730 729c27,-164 -160,-303 -160,-424 -1,-65 30,-101 49,-146 -53,20 -114,76 -140,113 -90,130 21,252 130,323 54,35 94,68 121,134z"/>
    <path class="fil2" d="M521 818c6,52 -16,57 -61,45 -10,26 -22,47 -18,83 97,23 168,-27 164,-124 -27,-13 -56,-12 -85,-4z"/>
   </g>
  </g>
  <path class="fil0" d="M1321 34l1708 0c92,0 168,76 168,168l0 107 -1709 0c-92,0 -167,-75 -167,-168l0 -107z"/>
  <path class="fil3" d="M1672 230c-2,0 -4,-1 -5,-2 -2,-2 -3,-3 -3,-6l0 -99c0,-2 1,-4 3,-5 1,-2 3,-3 5,-3 2,0 4,1 5,3 2,1 3,3 3,5l0 44 48 -49c1,-1 2,-1 3,-2 1,0 2,-1 4,-1 2,0 3,1 4,2 1,1 2,3 2,5 0,2 -1,4 -3,6l-37 38 38 52c1,1 1,3 1,5 0,2 0,3 -1,5 -2,1 -3,2 -5,2 -3,0 -5,-1 -7,-3l-37 -50 -10 10 0 35c0,3 -1,4 -3,6 -1,1 -3,2 -5,2z"/>
  <path id="1" class="fil3" d="M1837 218c1,2 1,4 1,5 0,2 0,4 -2,5 -1,1 -3,2 -5,2 -3,0 -5,-1 -7,-4l-25 -40 -3 0 -18 0 0 36c0,3 -1,4 -3,6 -1,1 -3,2 -5,2 -2,0 -4,-1 -5,-2 -2,-2 -3,-3 -3,-6l0 -99c0,-2 1,-4 3,-5 1,-2 3,-3 5,-3l26 0c8,0 14,2 20,5 6,3 10,7 13,13 3,5 5,11 5,19 0,6 -2,13 -5,18 -4,5 -9,9 -15,12l23 36zm-41 -46c7,0 13,-2 17,-6 4,-4 6,-8 6,-14 0,-7 -2,-12 -6,-16 -4,-4 -10,-6 -17,-6l-18 0 0 42 18 0z"/>
  <path id="2" class="fil3" d="M1863 230c-2,0 -4,-1 -6,-2 -1,-2 -2,-3 -2,-6l0 -99c0,-2 1,-4 2,-5 2,-2 4,-3 6,-3l66 0c2,0 4,1 6,2 1,2 2,3 2,6 0,2 -1,3 -2,5 -2,1 -4,2 -6,2l-59 0 0 35 43 0c2,0 4,1 5,2 1,2 2,3 2,5 0,2 -1,4 -2,5 -1,2 -3,2 -5,2l-43 0 0 37 59 0c2,0 4,1 6,2 1,1 2,3 2,5 0,2 -1,4 -2,5 -2,1 -4,2 -6,2l-66 0z"/>
  <path id="3" class="fil3" d="M1966 230c-3,0 -4,-1 -6,-2 -1,-2 -2,-3 -2,-6l0 -99c0,-2 1,-4 2,-5 2,-2 3,-3 6,-3l26 0c11,0 21,3 30,8 8,5 15,11 20,20 5,9 7,19 7,30 0,11 -2,21 -7,29 -5,9 -12,16 -20,21 -9,5 -19,7 -30,7l-26 0zm26 -13c8,0 16,-2 22,-6 6,-4 11,-9 15,-16 4,-6 5,-14 5,-22 0,-9 -1,-16 -5,-23 -4,-7 -9,-12 -15,-15 -6,-4 -14,-6 -22,-6l-19 0 0 88 19 0z"/>
  <path id="4" class="fil3" d="M2081 230c-3,0 -4,-1 -6,-2 -1,-2 -2,-3 -2,-6l0 -99c0,-2 1,-4 2,-5 2,-2 3,-3 6,-3 2,0 4,1 5,3 2,1 2,3 2,5l0 99c0,3 0,4 -2,6 -1,1 -3,2 -5,2z"/>
  <path id="5" class="fil3" d="M2125 230c-2,0 -4,-1 -5,-2 -2,-2 -2,-3 -2,-6l0 -99c0,-2 0,-4 2,-5 1,-2 3,-3 5,-3l35 0c7,0 13,2 18,4 5,3 9,7 12,11 3,5 4,10 4,16 0,5 -1,9 -4,13 -2,4 -6,7 -10,9 6,2 11,5 15,10 4,4 6,10 6,17 0,7 -2,13 -5,18 -3,6 -7,10 -13,13 -6,3 -12,4 -20,4l-38 0zm35 -67c6,0 11,-2 14,-5 4,-3 5,-7 5,-12 0,-5 -1,-10 -5,-12 -3,-3 -8,-4 -14,-4l-27 0 0 33 27 0zm3 53c7,0 13,-2 17,-5 4,-4 6,-9 6,-16 0,-6 -2,-10 -6,-13 -4,-4 -10,-5 -17,-5l-30 0 0 39 30 0z"/>
  <path id="6" class="fil3" d="M2231 230c-2,0 -4,-1 -5,-2 -1,-2 -2,-3 -2,-6l0 -99c0,-2 1,-4 2,-5 1,-2 3,-3 5,-3l67 0c2,0 4,1 5,2 2,2 2,3 2,6 0,2 0,3 -2,5 -1,1 -3,2 -5,2l-59 0 0 35 42 0c2,0 4,1 6,2 1,2 2,3 2,5 0,2 -1,4 -2,5 -2,2 -4,2 -6,2l-42 0 0 37 59 0c2,0 4,1 5,2 2,1 2,3 2,5 0,2 0,4 -2,5 -1,1 -3,2 -5,2l-67 0z"/>
  <path id="7" class="fil3" d="M2334 230c-2,0 -4,-1 -5,-2 -2,-2 -2,-3 -2,-6l0 -99c0,-2 0,-4 2,-5 1,-2 3,-3 5,-3 2,0 4,1 6,3 1,1 2,3 2,5l0 92 53 0c2,0 4,1 5,2 2,2 3,3 3,5 0,3 -1,4 -3,6 -1,1 -3,2 -5,2l-61 0z"/>
  <path id="8" class="fil3" d="M2424 232c-3,0 -5,-1 -7,-3 -2,-2 -3,-4 -3,-7 0,-3 1,-5 3,-7 2,-2 4,-3 7,-3 2,0 5,1 7,3 2,2 3,4 3,7 0,3 -1,5 -3,7 -2,2 -4,3 -7,3z"/>
  <path id="9" class="fil3" d="M2501 232c-10,0 -20,-3 -28,-8 -9,-5 -16,-12 -21,-21 -5,-10 -7,-19 -7,-30 0,-11 2,-21 7,-30 5,-9 12,-16 21,-21 8,-5 18,-8 28,-8 8,0 14,1 20,3 5,2 11,5 16,10 1,0 2,1 3,2 0,1 0,2 0,4 0,2 -1,3 -2,4 -1,2 -3,2 -5,2 -2,0 -3,0 -5,-2 -4,-3 -8,-5 -12,-7 -4,-1 -9,-2 -15,-2 -7,0 -14,2 -21,6 -6,4 -11,9 -15,16 -4,7 -6,15 -6,23 0,8 2,15 6,22 4,7 9,13 15,17 7,4 14,6 21,6 10,0 19,-4 27,-10 2,-1 4,-2 5,-2 2,0 4,1 5,2 1,1 2,3 2,5 0,2 -1,4 -3,6 -10,8 -22,13 -36,13z"/>
  <path id="10" class="fil3" d="M2617 232c-11,0 -21,-3 -30,-8 -9,-5 -16,-12 -21,-21 -5,-9 -7,-19 -7,-30 0,-12 2,-22 7,-31 5,-9 12,-16 21,-21 9,-5 19,-7 30,-7 11,0 21,2 30,7 9,5 16,12 21,21 5,9 7,19 7,31 0,11 -2,21 -7,30 -5,9 -12,16 -21,21 -8,5 -19,8 -30,8zm0 -14c8,0 16,-2 23,-6 6,-4 11,-10 15,-16 4,-7 6,-15 6,-23 0,-9 -2,-16 -6,-23 -4,-7 -9,-12 -15,-16 -7,-4 -14,-6 -23,-6 -8,0 -16,2 -22,6 -7,4 -12,9 -16,16 -4,7 -5,14 -5,23 0,8 1,16 5,23 4,6 9,12 16,16 6,4 14,6 22,6z"/>
  <path id="11" class="fil3" d="M2693 232c-2,0 -5,-1 -7,-3 -2,-2 -3,-4 -3,-7 0,-3 1,-5 3,-7 2,-2 5,-3 7,-3 3,0 5,1 7,3 2,2 3,4 3,7 0,3 0,5 -2,7 -2,2 -5,3 -8,3z"/>
  <path id="12" class="fil3" d="M2733 230c-2,0 -4,-1 -5,-2 -2,-2 -2,-3 -2,-6l0 -99c0,-2 0,-4 2,-5 1,-2 3,-3 5,-3 2,0 4,1 6,3 1,1 2,3 2,5l0 99c0,3 -1,4 -2,6 -2,1 -4,2 -6,2z"/>
  <path id="13" class="fil3" d="M2778 230c-2,0 -4,-1 -6,-2 -1,-2 -2,-3 -2,-6l0 -99c0,-2 1,-4 2,-5 2,-2 4,-3 6,-3l26 0c11,0 21,3 30,8 9,5 15,11 20,20 5,9 7,19 7,30 0,11 -2,21 -7,29 -5,9 -11,16 -20,21 -9,5 -19,7 -30,7l-26 0zm26 -13c9,0 16,-2 22,-6 7,-4 12,-9 15,-16 4,-6 6,-14 6,-22 0,-9 -2,-16 -6,-23 -3,-7 -8,-12 -15,-15 -6,-4 -13,-6 -22,-6l-19 0 0 88 19 0z"/>
  <polygon class="fil4" points="1811,441 1725,663 1684,663 1595,441 1645,441 1704,597 1763,441 "/>
  <polygon id="1" class="fil4" points="1987,663 1836,663 1836,441 1987,441 1987,476 1879,476 1879,529 1985,529 1985,564 1879,564 1879,625 1987,625 "/>
  <path id="2" class="fil4" d="M2193 663l-49 0 -16 -51c-2,-5 -4,-11 -6,-15 -3,-5 -6,-9 -9,-12 -4,-3 -8,-6 -14,-8 -5,-2 -10,-3 -17,-3l-17 0 0 89 -44 0 0 -222 91 0c9,0 18,1 27,5 8,3 15,7 21,13 7,6 11,12 15,20 3,8 5,16 5,25 0,7 -1,13 -3,19 -2,6 -5,12 -9,17 -4,5 -8,10 -14,14 -5,4 -11,7 -17,9 7,3 13,6 18,11 4,5 8,11 11,18 1,3 2,6 3,9 1,3 3,7 4,10 1,4 2,7 4,11 1,4 3,9 5,13 2,7 4,12 5,16 2,4 4,8 6,12zm-57 -155c0,-6 -1,-10 -3,-15 -2,-4 -5,-8 -9,-11 -3,-3 -7,-5 -12,-7 -4,-2 -10,-3 -15,-3l-32 0 0 69 32 0c5,0 11,0 15,-2 5,-2 9,-4 12,-7 4,-3 7,-6 9,-10 2,-5 3,-9 3,-14z"/>
  <polygon id="3" class="fil4" points="2265,663 2221,663 2221,441 2265,441 "/>
  <polygon id="4" class="fil4" points="2459,478 2352,478 2352,529 2458,529 2458,564 2352,564 2352,663 2308,663 2308,441 2459,441 "/>
  <polygon id="5" class="fil4" points="2532,663 2488,663 2488,441 2532,441 "/>
  <polygon id="6" class="fil4" points="2726,663 2575,663 2575,441 2726,441 2726,476 2619,476 2619,529 2725,529 2725,564 2619,564 2619,625 2726,625 "/>
  <path id="7" class="fil4" d="M2964 552c0,15 -2,29 -8,43 -5,13 -12,25 -22,35 -10,10 -21,18 -34,24 -14,6 -28,9 -44,9l-95 0 0 -222 95 0c16,0 30,3 44,9 13,5 24,13 34,23 10,10 17,22 22,36 6,13 8,27 8,43zm-45 -1c1,-11 -1,-21 -5,-30 -3,-9 -8,-17 -14,-24 -7,-7 -15,-13 -24,-17 -10,-3 -20,-5 -32,-5l-39 0 0 151 39 0c11,0 22,-2 31,-6 9,-3 17,-9 24,-16 6,-6 11,-14 15,-23 3,-10 5,-20 5,-30z"/>
  <path id="8" class="fil4" d="M1953 979c0,8 -1,16 -5,24 -4,7 -9,14 -16,19 -6,6 -14,11 -24,14 -9,4 -19,5 -30,5 -10,0 -19,0 -27,-1 -8,-2 -15,-3 -22,-6 -7,-2 -14,-5 -20,-9 -6,-4 -13,-8 -20,-14l32 -30c9,7 18,12 27,15 8,3 18,5 28,5 4,0 8,-1 12,-2 4,-1 7,-3 10,-5 3,-2 5,-4 6,-7 2,-3 3,-6 3,-9 0,-4 -1,-7 -2,-10 -2,-2 -4,-5 -7,-8 -4,-2 -9,-5 -15,-8 -6,-2 -14,-5 -23,-9 -9,-3 -17,-6 -24,-10 -8,-4 -15,-8 -21,-14 -6,-5 -10,-11 -14,-18 -3,-8 -5,-16 -5,-26 0,-9 2,-18 6,-26 4,-8 9,-15 16,-20 7,-6 15,-10 24,-14 9,-3 18,-4 29,-4 18,0 32,2 44,6 12,5 23,11 32,20l-30 30c-6,-5 -13,-9 -20,-12 -7,-3 -15,-5 -25,-5 -4,0 -8,1 -12,2 -3,2 -7,3 -9,5 -3,3 -5,5 -7,8 -1,3 -2,6 -2,9 0,4 1,7 2,10 2,2 4,5 8,8 3,3 8,5 14,8 6,3 14,6 23,9 11,4 21,8 29,12 8,5 15,10 20,16 5,5 9,11 12,18 2,7 3,15 3,24z"/>
  <polygon id="9" class="fil4" points="2142,854 2079,854 2079,1037 2034,1037 2034,854 1971,854 1971,815 2142,815 "/>
  <path id="10" class="fil4" d="M2392 926c0,16 -3,31 -9,45 -7,14 -15,26 -26,37 -11,10 -24,18 -39,24 -15,6 -30,9 -47,9 -17,0 -32,-3 -47,-9 -15,-6 -28,-14 -39,-24 -11,-11 -19,-23 -26,-37 -6,-14 -9,-29 -9,-45 0,-16 3,-31 9,-45 7,-14 15,-26 26,-37 11,-10 24,-18 39,-24 15,-6 30,-9 47,-9 17,0 32,3 47,9 15,6 28,14 39,24 11,11 19,23 26,37 6,14 9,29 9,45zm-44 0c0,-10 -2,-20 -6,-29 -4,-9 -10,-16 -17,-23 -7,-7 -15,-12 -24,-16 -9,-4 -19,-6 -30,-6 -11,0 -21,2 -30,6 -9,4 -18,9 -25,16 -7,7 -12,14 -16,23 -4,9 -6,19 -6,29 0,10 2,20 6,29 4,9 9,17 16,23 7,7 16,13 25,17 9,4 19,5 30,5 11,0 21,-1 30,-5 9,-4 17,-10 24,-17 7,-6 13,-14 17,-23 4,-9 6,-19 6,-29z"/>
  <path id="11" class="fil4" d="M2599 1037l-49 0 -16 -50c-2,-6 -4,-11 -7,-16 -2,-4 -5,-8 -9,-12 -3,-3 -8,-5 -13,-7 -5,-2 -11,-3 -18,-3l-16 0 0 88 -44 0 0 -222 90 0c10,0 19,2 27,5 9,3 16,8 22,13 6,6 11,13 14,21 4,8 6,16 6,25 0,6 -1,13 -4,19 -2,6 -5,12 -8,17 -4,5 -9,10 -14,14 -5,3 -11,6 -17,9 7,2 13,6 18,11 4,5 8,11 10,17 2,4 3,7 4,10 1,3 2,6 4,10 1,3 2,7 4,11 1,4 3,8 4,13 2,6 4,11 6,16 2,4 4,8 6,11zm-58 -155c0,-5 -1,-10 -3,-14 -2,-4 -5,-8 -8,-11 -3,-3 -7,-6 -12,-8 -5,-1 -10,-2 -15,-2l-32 0 0 69 32 0c5,0 10,-1 15,-2 5,-2 9,-4 12,-7 3,-3 6,-7 8,-11 2,-4 3,-9 3,-14z"/>
  <polygon id="12" class="fil4" points="2778,1037 2626,1037 2626,815 2778,815 2778,851 2670,851 2670,904 2776,904 2776,939 2670,939 2670,1000 2778,1000 "/>
  <path class="fil5" d="M175 1396c-2,0 -3,-1 -5,-2 -1,-1 -2,-3 -2,-5l0 -86c0,-2 1,-4 2,-5 2,-1 3,-2 5,-2l31 0c5,0 11,1 15,3 4,3 8,6 10,10 3,4 4,9 4,14 0,4 -1,8 -3,11 -2,3 -6,6 -10,8 6,1 11,4 14,8 4,4 5,9 5,16 0,6 -1,11 -4,15 -3,5 -7,9 -12,11 -5,3 -10,4 -17,4l-33 0zm31 -59c5,0 9,-1 12,-4 3,-2 4,-6 4,-10 0,-5 -1,-9 -4,-11 -3,-2 -7,-4 -12,-4l-24 0 0 29 24 0zm2 47c6,0 11,-2 15,-5 4,-3 5,-8 5,-13 0,-6 -1,-10 -5,-12 -4,-3 -9,-5 -15,-5l-26 0 0 35 26 0z"/>
  <path id="1" class="fil5" d="M303 1398c-8,0 -15,-1 -22,-5 -6,-3 -11,-7 -15,-12 -3,-5 -5,-12 -5,-19l0 -59c0,-2 1,-4 2,-5 1,-1 3,-2 5,-2 2,0 3,1 4,2 2,1 2,3 2,5l0 59c0,5 2,9 4,13 2,3 6,6 10,8 4,2 9,3 15,3 5,0 10,-1 14,-3 4,-2 7,-5 10,-8 2,-4 3,-8 3,-13l0 -59c0,-2 1,-4 2,-5 2,-1 3,-2 5,-2 2,0 3,1 5,2 1,1 2,3 2,5l0 59c0,7 -2,13 -6,19 -3,5 -8,9 -14,12 -6,4 -13,5 -21,5z"/>
  <path id="2" class="fil5" d="M401 1397c-8,0 -16,-2 -23,-5 -7,-4 -11,-9 -14,-15 0,-1 0,-2 0,-3 0,-1 0,-2 1,-3 1,-1 2,-2 4,-2 0,0 1,0 1,0 2,0 3,0 4,1 1,1 2,2 3,3 1,4 4,6 9,9 4,2 9,3 15,3 6,0 12,-1 16,-4 5,-3 7,-7 7,-12 0,-5 -2,-9 -6,-13 -4,-3 -9,-5 -17,-6 -11,-1 -19,-4 -25,-9 -6,-6 -9,-12 -9,-20 0,-5 2,-10 5,-14 3,-4 7,-7 12,-9 6,-2 12,-3 19,-3 7,0 13,1 18,4 5,3 10,8 13,13 1,2 2,3 2,5 0,2 -1,3 -3,4 -1,1 -2,1 -3,1 -2,0 -3,0 -4,-1 -1,0 -2,-1 -2,-2 -3,-4 -6,-7 -9,-9 -4,-2 -8,-3 -13,-3 -7,0 -12,1 -16,4 -4,2 -6,6 -6,11 0,4 2,8 5,11 4,3 10,5 20,6 10,1 18,4 23,9 6,5 9,12 9,20 0,6 -2,12 -5,16 -3,5 -8,8 -13,10 -6,2 -12,3 -18,3z"/>
  <path id="3" class="fil5" d="M464 1396c-2,0 -4,-1 -5,-2 -1,-1 -2,-3 -2,-5l0 -86c0,-2 1,-4 2,-5 1,-1 3,-2 5,-2 2,0 3,1 5,2 1,1 1,3 1,5l0 86c0,2 0,4 -1,5 -2,1 -3,2 -5,2z"/>
  <path id="4" class="fil5" d="M503 1396c-2,0 -4,-1 -5,-2 -1,-1 -2,-3 -2,-5l0 -86c0,-2 1,-4 2,-5 1,-1 3,-2 5,-2 1,0 1,0 2,1 1,0 2,1 3,1l56 75 0 -70c0,-2 0,-4 1,-5 2,-1 3,-2 5,-2 2,0 4,1 5,2 1,1 2,3 2,5l0 86c0,2 -1,4 -2,5 -1,1 -3,2 -5,2 -1,0 -2,0 -3,-1 -1,0 -1,-1 -2,-1l-56 -75 0 70c0,2 0,4 -2,5 -1,1 -2,2 -4,2z"/>
  <path id="5" class="fil5" d="M609 1396c-2,0 -4,-1 -5,-2 -1,-1 -2,-3 -2,-5l0 -86c0,-2 1,-4 2,-5 1,-1 3,-2 5,-2l58 0c2,0 3,1 5,2 1,1 1,2 1,4 0,2 0,4 -1,5 -2,1 -3,1 -5,1l-51 0 0 31 36 0c2,0 4,1 5,2 1,1 2,3 2,5 0,1 -1,3 -2,4 -1,1 -3,2 -5,2l-36 0 0 32 51 0c2,0 3,0 5,1 1,1 1,3 1,5 0,2 0,3 -1,4 -2,1 -3,2 -5,2l-58 0z"/>
  <path id="6" class="fil5" d="M724 1397c-9,0 -16,-2 -23,-5 -7,-4 -11,-9 -14,-15 0,-1 -1,-2 -1,-3 0,-1 1,-2 2,-3 1,-1 2,-2 4,-2 0,0 0,0 1,0 1,0 3,0 4,1 1,1 2,2 3,3 1,4 4,6 9,9 4,2 9,3 15,3 6,0 11,-1 16,-4 4,-3 6,-7 6,-12 0,-5 -1,-9 -5,-13 -4,-3 -10,-5 -17,-6 -11,-1 -19,-4 -25,-9 -6,-6 -9,-12 -9,-20 0,-5 1,-10 4,-14 3,-4 8,-7 13,-9 6,-2 12,-3 18,-3 8,0 14,1 19,4 5,3 9,8 13,13 1,2 1,3 1,5 0,2 -1,3 -2,4 -1,1 -2,1 -4,1 -1,0 -2,0 -3,-1 -1,0 -2,-1 -3,-2 -2,-4 -5,-7 -8,-9 -4,-2 -8,-3 -14,-3 -6,0 -11,1 -15,4 -4,2 -6,6 -6,11 0,4 2,8 5,11 4,3 10,5 19,6 11,1 18,4 24,9 6,5 9,12 9,20 0,6 -2,12 -5,16 -4,5 -8,8 -14,10 -5,2 -11,3 -17,3z"/>
  <path id="7" class="fil5" d="M812 1397c-9,0 -16,-2 -23,-5 -7,-4 -11,-9 -14,-15 0,-1 -1,-2 -1,-3 0,-1 1,-2 2,-3 1,-1 2,-2 4,-2 0,0 0,0 1,0 1,0 3,0 4,1 1,1 2,2 3,3 1,4 4,6 9,9 4,2 9,3 15,3 6,0 11,-1 16,-4 4,-3 7,-7 7,-12 0,-5 -2,-9 -6,-13 -4,-3 -10,-5 -17,-6 -11,-1 -19,-4 -25,-9 -6,-6 -9,-12 -9,-20 0,-5 1,-10 4,-14 3,-4 8,-7 13,-9 6,-2 12,-3 18,-3 8,0 14,1 19,4 5,3 9,8 13,13 1,2 1,3 1,5 0,2 -1,3 -2,4 -1,1 -2,1 -4,1 -1,0 -2,0 -3,-1 -1,0 -2,-1 -3,-2 -2,-4 -5,-7 -8,-9 -4,-2 -8,-3 -13,-3 -7,0 -12,1 -16,4 -4,2 -6,6 -6,11 0,4 2,8 5,11 4,3 10,5 19,6 11,1 19,4 24,9 6,5 9,12 9,20 0,6 -2,12 -5,16 -4,5 -8,8 -14,10 -5,2 -11,3 -17,3z"/>
  <path id="8" class="fil5" d="M950 1397c-9,0 -17,-2 -25,-7 -7,-4 -13,-10 -18,-18 -4,-8 -6,-17 -6,-26 0,-9 2,-18 6,-26 5,-8 11,-14 18,-18 8,-5 16,-7 25,-7 7,0 12,1 17,2 5,2 10,5 14,9 1,1 2,1 2,2 1,1 1,2 1,3 0,2 -1,3 -2,4 -1,1 -3,2 -4,2 -2,0 -3,-1 -5,-2 -3,-3 -7,-5 -10,-6 -3,-2 -8,-2 -13,-2 -6,0 -13,2 -18,5 -6,4 -10,8 -13,14 -4,6 -5,13 -5,20 0,7 1,14 5,20 3,6 7,10 13,14 5,3 12,5 18,5 8,0 16,-3 24,-8 1,-1 3,-2 4,-2 2,0 3,1 4,2 1,1 2,3 2,4 0,2 -1,4 -2,5 -10,8 -20,11 -32,11z"/>
  <path id="9" class="fil5" d="M1070 1386c1,1 1,3 1,4 0,2 -1,3 -2,4 -1,1 -2,2 -4,2 -3,0 -5,-1 -6,-3l-22 -36 -2 0 -17 0 0 32c0,2 0,4 -2,5 -1,1 -3,2 -5,2 -1,0 -3,-1 -4,-2 -2,-1 -2,-3 -2,-5l0 -86c0,-2 0,-4 2,-5 1,-1 3,-2 4,-2l24 0c6,0 11,1 16,4 5,3 9,6 12,11 3,5 4,10 4,17 0,6 -1,11 -4,16 -3,4 -8,8 -13,10l20 32zm-35 -41c5,0 10,-1 14,-5 4,-3 5,-7 5,-12 0,-6 -1,-11 -5,-14 -4,-4 -9,-6 -14,-6l-17 0 0 37 17 0z"/>
  <path id="10" class="fil5" d="M1092 1396c-2,0 -3,-1 -4,-2 -2,-1 -2,-3 -2,-5l0 -86c0,-2 0,-4 2,-5 1,-1 2,-2 4,-2l58 0c2,0 4,1 5,2 1,1 2,2 2,4 0,2 -1,4 -2,5 -1,1 -3,1 -5,1l-51 0 0 31 37 0c2,0 3,1 4,2 2,1 2,3 2,5 0,1 0,3 -2,4 -1,1 -2,2 -4,2l-37 0 0 32 51 0c2,0 4,0 5,1 1,1 2,3 2,5 0,2 -1,3 -2,4 -1,1 -3,2 -5,2l-58 0z"/>
  <path id="11" class="fil5" d="M1182 1396c-2,0 -4,-1 -5,-2 -1,-1 -2,-3 -2,-5l0 -86c0,-2 1,-4 2,-5 1,-1 3,-2 5,-2l23 0c10,0 18,2 26,6 7,5 13,11 17,18 5,8 7,16 7,26 0,10 -2,18 -7,26 -4,7 -10,13 -17,18 -8,4 -16,6 -26,6l-23 0zm23 -12c7,0 14,-1 19,-5 6,-3 10,-7 13,-13 3,-6 5,-13 5,-20 0,-7 -2,-14 -5,-20 -3,-6 -7,-10 -13,-13 -5,-4 -12,-5 -19,-5l-16 0 0 76 16 0z"/>
  <path id="12" class="fil5" d="M1282 1396c-2,0 -3,-1 -5,-2 -1,-1 -2,-3 -2,-5l0 -86c0,-2 1,-4 2,-5 2,-1 3,-2 5,-2l58 0c2,0 4,1 5,2 1,1 1,2 1,4 0,2 0,4 -1,5 -1,1 -3,1 -5,1l-51 0 0 31 37 0c1,0 3,1 4,2 1,1 2,3 2,5 0,1 -1,3 -2,4 -1,1 -3,2 -4,2l-37 0 0 32 51 0c2,0 4,0 5,1 1,1 1,3 1,5 0,2 0,3 -1,4 -1,1 -3,2 -5,2l-58 0z"/>
  <path id="13" class="fil5" d="M1372 1396c-2,0 -4,-1 -5,-2 -1,-1 -2,-3 -2,-5l0 -86c0,-2 1,-4 2,-5 1,-1 3,-2 5,-2 1,0 1,0 2,1 1,0 2,1 3,1l55 75 0 -70c0,-2 1,-4 2,-5 2,-1 3,-2 5,-2 2,0 4,1 5,2 1,1 2,3 2,5l0 86c0,2 -1,4 -2,5 -1,1 -3,2 -5,2 -1,0 -2,0 -3,-1 -1,0 -1,-1 -2,-1l-56 -75 0 70c0,2 0,4 -2,5 -1,1 -2,2 -4,2z"/>
  <path id="14" class="fil5" d="M1535 1296c2,0 3,1 4,2 2,1 2,2 2,4 0,2 0,3 -2,5 -1,1 -2,1 -4,1l-28 0 0 81c0,2 0,4 -1,5 -2,1 -3,2 -5,2 -2,0 -4,-1 -5,-2 -1,-1 -2,-3 -2,-5l0 -81 -27 0c-2,0 -4,0 -5,-1 -1,-2 -2,-3 -2,-5 0,-2 1,-3 2,-4 1,-1 3,-2 5,-2l68 0z"/>
  <path id="15" class="fil5" d="M1562 1396c-1,0 -3,-1 -4,-2 -2,-1 -2,-3 -2,-5l0 -86c0,-2 0,-4 2,-5 1,-1 3,-2 4,-2 2,0 4,1 5,2 2,1 2,3 2,5l0 86c0,2 0,4 -2,5 -1,1 -3,2 -5,2z"/>
  <path id="16" class="fil5" d="M1669 1387c1,1 1,2 1,2 0,2 -1,4 -2,5 -1,1 -3,2 -5,2 -1,0 -2,0 -3,-1 -1,-1 -2,-2 -3,-3l-7 -18 -46 0 -7 18c-1,1 -2,2 -3,3 -1,1 -2,1 -3,1 -2,0 -4,-1 -5,-2 -1,-1 -2,-3 -2,-5 0,-1 0,-2 1,-3l36 -85c1,-3 3,-5 6,-5 3,0 5,2 6,5l36 86zm-60 -24l37 0 -19 -46 -18 46z"/>
  <path id="17" class="fil5" d="M1691 1396c-2,0 -3,-1 -4,-2 -2,-1 -2,-3 -2,-5l0 -86c0,-2 0,-4 2,-5 1,-1 2,-2 4,-2 2,0 4,1 5,2 1,1 2,3 2,5l0 80 46 0c2,0 4,0 5,2 1,1 2,2 2,4 0,2 -1,4 -2,5 -1,1 -3,2 -5,2l-53 0z"/>
  <path class="fil3" d="M2987 1417l0 -114 68 57 -68 57zm0 -57m34 -29m0 57"/>
  <path class="fil3" d="M2003 1413c-8,0 -15,-2 -22,-6 -6,-4 -12,-9 -15,-16 -4,-7 -6,-14 -6,-23 0,-8 2,-15 6,-22 3,-7 9,-12 15,-16 7,-4 14,-6 22,-6 6,0 11,0 15,2 4,1 8,4 12,7 1,1 2,2 2,2 0,1 1,2 1,3 0,1 -1,3 -2,4 -1,1 -2,1 -4,1 -1,0 -3,0 -4,-1 -3,-3 -6,-5 -9,-6 -3,-1 -6,-2 -11,-2 -6,0 -11,2 -16,5 -5,3 -9,7 -12,12 -3,6 -4,11 -4,17 0,7 1,12 4,18 3,5 7,9 12,12 5,3 10,5 16,5 7,0 14,-3 21,-8 1,-1 2,-1 3,-1 2,0 3,0 4,1 1,1 1,3 1,4 0,2 0,3 -2,5 -8,6 -17,9 -27,9z"/>
  <path id="1" class="fil3" d="M2056 1412c-1,0 -3,0 -4,-2 -1,-1 -1,-2 -1,-4l0 -75c0,-2 0,-3 1,-5 2,-1 3,-1 4,-1 2,0 3,0 5,1 1,2 1,3 1,5l0 69 41 0c1,0 3,1 4,2 1,1 2,3 2,4 0,2 -1,3 -2,4 -1,2 -3,2 -4,2l-47 0z"/>
  <path id="2" class="fil3" d="M2128 1412c-1,0 -3,0 -4,-2 -1,-1 -1,-2 -1,-4l0 -75c0,-2 0,-3 1,-5 1,-1 3,-1 4,-1 2,0 3,0 5,1 1,2 1,3 1,5l0 75c0,2 0,3 -1,4 -2,2 -3,2 -5,2z"/>
  <path id="3" class="fil3" d="M2196 1413c-8,0 -16,-2 -22,-6 -7,-4 -12,-9 -16,-16 -4,-7 -6,-14 -6,-23 0,-8 2,-15 6,-22 4,-7 9,-12 16,-16 6,-4 14,-6 22,-6 5,0 10,0 14,2 4,1 9,4 13,7 1,1 1,2 2,2 0,1 0,2 0,3 0,1 0,3 -1,4 -2,1 -3,1 -4,1 -2,0 -3,0 -4,-1 -3,-3 -6,-5 -9,-6 -3,-1 -7,-2 -11,-2 -6,0 -12,2 -16,5 -5,3 -9,7 -12,12 -3,6 -4,11 -4,17 0,7 1,12 4,18 3,5 7,9 12,12 4,3 10,5 16,5 7,0 14,-3 20,-8 1,-1 3,-1 4,-1 1,0 3,0 3,1 1,1 2,3 2,4 0,2 -1,3 -2,5 -8,6 -17,9 -27,9z"/>
  <path id="4" class="fil3" d="M2249 1412c-1,0 -3,0 -4,-2 -1,-1 -2,-2 -2,-4l0 -75c0,-2 1,-3 2,-5 1,-1 3,-1 4,-1 2,0 3,0 4,1 1,2 2,3 2,5l0 33 37 -37c1,-1 2,-1 2,-2 1,0 2,0 3,0 1,0 3,0 3,1 1,1 2,2 2,4 0,2 -1,3 -2,5l-29 28 29 40c1,1 1,2 1,3 0,2 0,3 -1,4 -1,2 -2,2 -4,2 -2,0 -4,-1 -5,-2l-28 -39 -8 8 0 27c0,2 -1,3 -2,4 -1,2 -2,2 -4,2z"/>
  <path id="5" class="fil3" d="M2406 1325c2,0 3,0 4,1 1,1 2,3 2,4 0,2 -1,3 -2,4 -1,1 -2,2 -4,2l-24 0 0 70c0,2 0,3 -1,4 -1,2 -3,2 -4,2 -2,0 -3,0 -5,-2 -1,-1 -1,-2 -1,-4l0 -70 -24 0c-2,0 -3,-1 -4,-2 -1,-1 -2,-2 -2,-4 0,-1 1,-3 2,-4 1,-1 2,-1 4,-1l59 0z"/>
  <path id="6" class="fil3" d="M2459 1413c-8,0 -16,-2 -23,-5 -6,-4 -12,-10 -15,-16 -4,-7 -6,-15 -6,-24 0,-8 2,-16 6,-23 3,-7 9,-12 15,-16 7,-3 15,-5 23,-5 9,0 17,2 23,5 7,4 12,9 16,16 4,7 6,15 6,23 0,9 -2,17 -6,24 -4,6 -9,12 -16,16 -6,3 -14,5 -23,5zm0 -10c7,0 12,-2 17,-5 6,-3 10,-7 12,-12 3,-5 5,-11 5,-18 0,-6 -2,-12 -5,-17 -2,-5 -6,-9 -11,-12 -5,-3 -11,-5 -18,-5 -6,0 -12,2 -17,5 -5,3 -9,7 -12,12 -2,5 -4,11 -4,17 0,7 2,13 4,18 3,5 7,9 12,12 5,3 11,5 17,5z"/>
  <path id="7" class="fil3" d="M2618 1325c2,0 3,0 4,1 1,1 2,2 2,4 0,1 -1,1 -1,3l-33 75c-1,3 -3,4 -5,4 -3,0 -4,-1 -6,-4l-32 -74c-1,-2 -1,-3 -1,-4 0,-2 0,-3 1,-4 1,-1 2,-1 4,-1 3,0 4,1 5,3l29 68 28 -68c1,-1 1,-2 2,-2 1,-1 2,-1 3,-1z"/>
  <path id="8" class="fil3" d="M2643 1412c-2,0 -3,0 -4,-2 -1,-1 -2,-2 -2,-4l0 -75c0,-2 1,-3 2,-5 1,-1 2,-1 4,-1l50 0c2,0 4,0 5,1 1,1 1,3 1,4 0,2 0,3 -1,4 -1,1 -3,2 -5,2l-44 0 0 27 32 0c1,0 3,0 4,1 1,1 2,3 2,4 0,2 -1,3 -2,4 -1,1 -3,1 -4,1l-32 0 0 28 44 0c2,0 4,1 5,2 1,1 1,2 1,4 0,1 0,3 -1,4 -1,1 -3,1 -5,1l-50 0z"/>
  <path id="9" class="fil3" d="M2772 1403c1,1 1,3 1,4 0,1 0,3 -1,4 -1,1 -3,1 -4,1 -3,0 -4,-1 -5,-3l-20 -31 -2 0 -14 0 0 28c0,2 -1,3 -2,4 -1,2 -2,2 -4,2 -1,0 -3,0 -4,-2 -1,-1 -2,-2 -2,-4l0 -75c0,-2 1,-3 2,-5 1,-1 3,-1 4,-1l20 0c6,0 11,1 15,3 4,3 8,6 10,10 3,4 4,9 4,14 0,6 -1,10 -4,14 -3,4 -6,8 -11,10l17 27zm-31 -35c5,0 10,-2 13,-5 3,-2 5,-6 5,-11 0,-5 -2,-9 -5,-12 -3,-3 -8,-4 -13,-4l-14 0 0 32 14 0z"/>
  <path id="10" class="fil3" d="M2792 1412c-2,0 -3,0 -4,-2 -1,-1 -2,-2 -2,-4l0 -75c0,-2 1,-3 2,-5 1,-1 2,-1 4,-1 2,0 3,0 4,1 1,2 2,3 2,5l0 75c0,2 -1,3 -2,4 -1,2 -2,2 -4,2z"/>
  <path id="11" class="fil3" d="M2819 1412c-2,0 -3,0 -4,-2 -1,-1 -2,-2 -2,-4l0 -75c0,-2 1,-3 2,-5 1,-1 2,-1 4,-1l50 0c2,0 3,0 4,1 2,1 2,3 2,4 0,2 0,3 -2,4 -1,1 -2,2 -4,2l-44 0 0 27 32 0c1,0 3,0 4,1 1,1 1,3 1,4 0,2 0,3 -1,4 -1,1 -3,1 -4,1l-32 0 0 33c0,2 -1,3 -2,4 -1,2 -3,2 -4,2z"/>
  <path id="12" class="fil3" d="M2948 1325c2,0 3,0 4,1 1,1 1,3 1,4 0,1 0,3 -1,4l-30 46 0 26c0,2 -1,3 -2,4 -1,2 -2,2 -4,2 -2,0 -3,0 -4,-2 -1,-1 -2,-2 -2,-4l0 -26 -29 -46c-1,-1 -2,-3 -2,-4 0,-1 1,-3 2,-4 1,-1 3,-1 4,-1 1,0 2,0 3,1 1,0 1,1 2,2l26 42 27 -42c1,-2 3,-3 5,-3z"/>
 </g>
</svg>
